<mxfile host="app.diagrams.net" modified="2023-04-15T07:27:27.326Z" agent="Mozilla/5.0 (Windows NT 10.0; Win64; x64; rv:109.0) Gecko/20100101 Firefox/112.0" version="21.1.8" etag="DERK_C7sct4aQAKop_Qx" type="github">
  <diagram name="Page-1" id="q6s7iH2Y0chyUPDoKnj6">
    <mxGraphModel>
      <root>
        <mxCell id="0" />
        <mxCell id="1" parent="0" />
      </root>
    </mxGraphModel>
  </diagram>
</mxfile>
